#!OML:ASF \\sashay\E\basketball\basketball\Project 1\Capture day 1\Session 1\Subject.ASF
:FULLY-SPECIFIED
:DEGREES
352
root -15.7684 13.799 -1.29968 -173.931 22.7323 -193.562
lowerback 35.0997 -1.16409 -8.5451
upperback 9.42995 -2.12069 -6.87783
thorax -7.07105 0.324621 -2.15664
lowerneck -2.53 -4.15653 -14.0599
upperneck -21.3932 -0.948754 20.1228
head -5.48063 0.219395 9.08211
rclavicle -1.55052e-014 -2.54444e-014
rhumerus -12.0412 -15.2442 -58.5504
rradius 91.2827
rwrist -28.2105
rhand -42.7666 65.9367
rfingers 7.12502
rthumb -15.6336 36.5484
lclavicle -1.55052e-014 -2.54444e-014
lhumerus -40.8424 6.19449 54.2795
lradius 82.5596
lwrist 26.3718
lhand -45.7509 20.084
lfingers 7.12502
lthumb -18.5061 49.2237
rfemur -57.0724 -19.1196 20.1271
rtibia 78.7791
rfoot 4.00292 -26.2597
rtoes -47.9215
lfemur -12.614 13.6467 2.14616
ltibia 35.3252
lfoot 7.18776 12.4182
ltoes -42.0524
353
root -15.4424 13.8748 -1.28584 -174.371 22.2604 -193.407
lowerback 35.4727 -0.857605 -9.37204
upperback 9.51252 -1.93883 -6.54122
thorax -6.90545 0.433568 -1.50048
lowerneck -2.37807 -4.14399 -14.2338
upperneck -21.1417 -0.97404 20.4235
head -5.41351 0.180265 9.21549
rclavicle 7.95139e-016 -6.79844e-014
rhumerus -11.7752 -15.9076 -57.4979
rradius 92.9458
rwrist -29.333
rhand -42.8891 65.9005
rfingers 7.12502
rthumb -15.7516 36.5215
lclavicle 7.95139e-016 -6.79844e-014
lhumerus -40.4118 4.96236 55.076
lradius 82.6679
lwrist 25.8548
lhand -45.4957 19.5914
lfingers 7.12502
lthumb -18.2605 48.7543
rfemur -55.4435 -18.9782 21.1217
rtibia 78.3045
rfoot 4.19179 -25.9551
rtoes -47.2757
lfemur -14.5985 16.5019 1.75501
ltibia 39.1755
lfoot 6.00053 9.34237
ltoes -41.2116
354
root -15.1447 13.9589 -1.27007 -174.102 21.3268 -193.033
lowerback 35.2602 -0.939052 -9.3565
upperback 9.63039 -1.96362 -6.18175
thorax -6.6814 0.402503 -1.11181
lowerneck -2.06353 -4.15842 -14.5546
upperneck -21.1243 -1.01364 20.7688
head -5.44037 0.14115 9.40884
rclavicle -3.97569e-016 -1.39149e-014
rhumerus -11.7875 -16.6891 -56.1548
rradius 94.5645
rwrist -30.7304
rhand -42.9774 65.9958
rfingers 7.12502
rthumb -15.8366 36.6235
lclavicle -3.97569e-016 -1.39149e-014
lhumerus -39.6734 3.56702 56.0733
lradius 82.5997
lwrist 25.3324
lhand -45.1651 19.2501
lfingers 7.12502
lthumb -17.9425 48.4425
rfemur -54.7081 -19.3762 22.4661
rtibia 77.938
rfoot 3.54448 -25.2244
rtoes -46.417
lfemur -17.8693 19.001 0.912389
ltibia 43.5226
lfoot 4.56213 7.47262
ltoes -41.1722
355
root -14.8514 14.0351 -1.24297 -173.877 20.2903 -192.55
lowerback 35.3755 -1.05307 -9.20898
upperback 9.70057 -2.02009 -5.85475
thorax -6.63977 0.371688 -0.820724
lowerneck -1.68076 -4.23308 -14.6955
upperneck -21.2211 -1.07467 21.2918
head -5.50568 0.0744884 9.64184
rclavicle -1.63003e-014 9.93923e-015
rhumerus -12.104 -17.7785 -55.0481
rradius 96.1556
rwrist -31.6743
rhand -42.623 66.4195
rfingers 7.12502
rthumb -15.4952 37.0204
lclavicle -1.63003e-014 9.93923e-015
lhumerus -38.7027 2.01919 56.9089
lradius 82.4012
lwrist 25.0165
lhand -44.7234 19.0355
lfingers 7.12502
lthumb -17.5175 48.2663
rfemur -54.1056 -20.0087 23.9179
rtibia 77.6486
rfoot 2.79765 -23.9719
rtoes -46.014
lfemur -21.2485 21.2096 -0.120287
ltibia 47.9017
lfoot 3.15424 6.89326
ltoes -40.113
356
root -14.5477 14.106 -1.21338 -173.709 19.2581 -191.962
lowerback 35.6307 -1.1314 -9.16606
upperback 9.79539 -2.05831 -5.52853
thorax -6.61205 0.358716 -0.486375
lowerneck -1.49589 -4.30723 -14.7647
upperneck -21.1992 -1.06162 22.0462
head -5.50603 0.04512 9.93759
rclavicle 3.33958e-014 2.34566e-014
rhumerus -12.4205 -19.0686 -54.2031
rradius 97.6486
rwrist -32.3986
rhand -42.1084 66.7601
rfingers 7.12502
rthumb -14.9996 37.3234
lclavicle 3.33958e-014 2.34566e-014
lhumerus -37.5172 0.51898 57.5807
lradius 82.1115
lwrist 24.7196
lhand -44.4597 18.8995
lfingers 7.12502
lthumb -17.2637 48.1527
rfemur -53.6192 -20.8891 25.5475
rtibia 77.4546
rfoot 2.06047 -22.2865
rtoes -46.141
lfemur -24.6128 23.2259 -1.25978
ltibia 52.2882
lfoot 2.09669 7.20176
ltoes -40.2209
357
root -14.2396 14.1876 -1.18985 -173.448 18.334 -191.348
lowerback 35.7132 -1.1369 -9.16937
upperback 9.90689 -2.0052 -5.17138
thorax -6.50304 0.378986 -0.125472
lowerneck -1.2541 -4.3437 -14.728
upperneck -21.2687 -0.98123 22.7267
head -5.56336 0.0468501 10.1948
rclavicle -3.97569e-015 6.12257e-014
rhumerus -12.6942 -20.777 -53.2313
rradius 98.6117
rwrist -32.7183
rhand -41.7128 67.2866
rfingers 7.12502
rthumb -14.6184 37.8218
lclavicle -3.97569e-015 6.12257e-014
lhumerus -36.2281 -1.10511 58.284
lradius 81.8721
lwrist 24.3894
lhand -44.3248 19.0142
lfingers 7.12502
lthumb -17.1338 48.2788
rfemur -53.3035 -21.7917 27.1951
rtibia 77.3201
rfoot 0.681254 -20.4578
rtoes -46.2739
lfemur -28.0018 25.0508 -2.69225
ltibia 56.481
lfoot 1.05185 8.18211
ltoes -41.0219
358
root -13.9309 14.2746 -1.16714 -173.119 17.4859 -190.658
lowerback 35.7313 -1.07331 -9.15256
upperback 10.0412 -1.84679 -4.74565
thorax -6.35156 0.442222 0.261666
lowerneck -0.840458 -4.39141 -14.5485
upperneck -21.6307 -0.89226 23.239
head -5.75293 0.048494 10.3853
rclavicle 6.79844e-014 1.1291e-013
rhumerus -13.0685 -22.2698 -52.2366
rradius 99.5337
rwrist -34.0533
rhand -41.6942 67.1468
rfingers 7.12502
rthumb -14.6006 37.6808
lclavicle 6.79844e-014 1.1291e-013
lhumerus -34.8956 -2.82371 59.0374
lradius 81.7006
lwrist 24.1662
lhand -44.2289 19.0556
lfingers 7.12502
lthumb -17.0415 48.3281
rfemur -53.0672 -22.6796 28.8458
rtibia 77.2673
rfoot -1.45346 -18.5992
rtoes -45.9496
lfemur -31.388 26.7052 -4.31139
ltibia 60.4469
lfoot -0.36112 9.33389
ltoes -39.2354
